

      <svg version="1.1" width="500" height="305" viewBox="0 0 300 300" xmlns="http://www.w3.org/2000/svg">
   
    <svg version="1.0" xmlns="http://www.w3.org/2000/svg"
 width="225.000000pt" height="225.000000pt" viewBox="0 0 225.000000 225.000000"
 preserveAspectRatio="xMidYMid meet">

<g transform="translate(0.000000,225.000000) scale(0.100000,-0.100000)"
fill="white" stroke-width="10">
<path d="M1070 2180 c-18 -18 -20 -33 -20 -129 l0 -109 60 -4 60 -3 0 117 c0
109 -1 118 -22 132 -30 21 -54 20 -78 -4z"/>
<path d="M472 1934 c-43 -30 -30 -62 63 -154 l85 -85 43 43 42 43 -86 84 c-48
47 -95 85 -105 85 -11 0 -30 -7 -42 -16z"/>
<path d="M1610 1865 l-85 -85 43 -42 42 -43 79 80 c44 44 82 89 85 101 8 27
-28 74 -57 74 -15 0 -52 -30 -107 -85z"/>
<path d="M994 1805 c-137 -30 -283 -134 -354 -251 -59 -97 -79 -174 -80 -293
0 -178 41 -284 161 -415 37 -41 73 -84 79 -96 6 -11 15 -62 19 -113 9 -105 19
-130 64 -157 29 -18 52 -20 236 -20 l203 0 38 38 c36 36 37 40 44 132 8 108
10 113 109 226 117 134 164 268 154 434 -11 171 -87 313 -218 412 -77 58 -135
84 -222 102 -90 19 -150 19 -233 1z m241 -97 c114 -29 233 -127 289 -239 46
-91 61 -183 46 -285 -14 -107 -52 -182 -144 -287 -43 -48 -84 -103 -91 -121
-8 -19 -17 -71 -21 -117 -4 -46 -11 -90 -17 -96 -7 -10 -57 -13 -188 -13 -160
0 -179 2 -187 17 -5 10 -12 57 -14 104 -3 47 -12 98 -21 115 -8 16 -46 64 -85
107 -112 126 -152 221 -152 362 1 312 281 529 585 453z"/>
<path d="M240 1343 c-39 -14 -53 -69 -24 -97 12 -13 40 -16 135 -16 l119 0 0
60 0 60 -107 -1 c-60 0 -115 -3 -123 -6z"/>
<path d="M1750 1336 c0 -7 3 -34 6 -60 l7 -46 117 0 c123 0 131 3 144 47 5 17
1 29 -18 48 -24 24 -31 25 -141 25 -90 0 -115 -3 -115 -14z"/>
<path d="M518 773 c-73 -73 -82 -99 -48 -133 32 -32 57 -24 126 42 35 33 64
64 64 67 0 3 -17 25 -38 49 l-37 43 -67 -68z"/>
<path d="M1603 800 c-18 -21 -33 -43 -33 -48 0 -15 127 -132 145 -132 28 0 67
47 60 73 -7 20 -123 147 -135 147 -3 0 -20 -18 -37 -40z"/>
<path d="M920 400 c-27 -27 -26 -65 2 -84 18 -13 55 -16 194 -16 153 0 173 2
187 18 24 26 21 68 -5 86 -18 13 -55 16 -190 16 -155 0 -170 -2 -188 -20z"/>
<path d="M922 254 c-24 -16 -28 -44 -12 -75 10 -18 23 -19 198 -19 202 0 212
2 212 51 0 55 -15 59 -203 59 -140 0 -177 -3 -195 -16z"/>
<path d="M980 112 c0 -5 9 -17 21 -28 30 -27 163 -33 208 -10 17 9 31 23 31
31 0 12 -22 15 -130 15 -71 0 -130 -4 -130 -8z"/>
</g>
</svg>

       <text font-family="Koldby" text-anchor="middle" x="150" y="150" font-size="3rem" fill="white">
        &lt;S&gt;</text>
        </svg> 